<?xml version="1.0" encoding="utf-8"?>
<!-- Generator: Adobe Illustrator 22.1.0, SVG Export Plug-In . SVG Version: 6.00 Build 0)  -->
<svg version="1.1" id="Layer_1" xmlns="http://www.w3.org/2000/svg" xmlns:xlink="http://www.w3.org/1999/xlink" x="0px" y="0px"
	 viewBox="0 0 200 200" style="enable-background:new 0 0 200 200;" xml:space="preserve">
<g>
	<path d="M101.4,42.8c-5.3-9.1-8.9-16.4-13.4-23C72.8-2.1,46.6-6.3,25,9.5C2,26.3-5.9,55.6,12.6,84c25.6,39.4,56.5,75.5,87.4,116
		c31-39.1,60.1-74.3,87.1-111c6.9-9.4,9.1-23.3,10.4-35.5c2.5-23.4-14-45.4-36.5-51.6c-22-6-40.4,2.7-52.5,25.3
		C106.2,31.5,104.4,36.1,101.4,42.8z"/>
	<path d="M101.4,42.8c3-6.8,4.8-11.4,7.1-15.6C120.6,4.7,139-4.1,161,1.9c22.5,6.2,39,28.2,36.5,51.6C196.2,65.7,194,79.7,187,89
		c-27,36.7-56.1,71.9-87.1,111c-30.9-40.5-61.7-76.5-87.4-116C-5.9,55.6,2,26.3,25,9.5C46.6-6.3,72.8-2.1,88,19.8
		C92.5,26.4,96.1,33.7,101.4,42.8z"/>
</g>
</svg>
