<?xml version="1.0" encoding="utf-8"?>
<svg version="1.1" xmlns="http://www.w3.org/2000/svg" xmlns:xlink="http://www.w3.org/1999/xlink" x="0px" y="0px" viewBox="0 0 200 200" style="enable-background:new 0 0 200 200;" xml:space="preserve">
	<polygon class="st0" points="157.6,53.1 157.6,70.3 146.8,70.3 146.8,53.1 84.3,53.1 84.3,70.3 73.4,70.3 73.4,53.1 31,53.1 31,70.3 14.1,70.3 14.1,67.3 0,67.3 0,81.4 14.1,81.4 14.1,77.4 31,77.4 31,95.6 73.4,95.6 73.4,77.4 84.3,77.4 84.3,95.6 110.2,95.6 110.2,106.5 95.7,106.5 95.7,146.9 136,146.9 136,106.5 120,106.5 120,95.6 146.8,95.6 146.8,77.4 157.6,77.4 157.6,95.6 200,95.6 200,53.1 "/>
</svg>
